# File created by Blade
# Date/Time:  Thu Jan 22 19:09:08 2015
#---------------------------------------------------------
:version 1.10
:name HOM
:units
  mass 1.0
  length 1.000000
  angle deg
:documentation
     Acclaim Skeleton File
:root
   axis xyz
   order TX TY TZ RX RY RZ
   position 0.000000 0.000000 0.000000
   orientation 0 0 0
:bonedata
   begin
      id 1
      name RightUpLeg_dum
      direction -1.000000 0.000000 0.000000
      length 4.478084
      axis 0.0 0.0 0.0 xyz
   end
   begin
      id 2
      name LeftUpLeg_dum
      direction 1.000000 0.000000 0.000000
      length 4.478084
      axis 0.0 0.0 0.0 xyz
   end
   begin
      id 3
      name Spine_dum
      direction 0.000000 1.000000 0.000000
      length 6.068208
      axis 0.0 0.0 0.0 xyz
   end
   begin
      id 4
      name RightUpLeg
      direction 0.000000 -1.000000 0.000000
      length 16.405774
      axis 0.0 0.0 0.0 xyz
      dof rx ry rz
   end
   begin
      id 5
      name RightLeg
      direction 0.000000 -1.000000 0.000000
      length 14.644143
      axis 0.0 0.0 0.0 xyz
      dof rx ry rz
   end
   begin
      id 6
      name RightFoot
      direction 0.000000 -0.258819 0.965926
      length 5.806150
      axis 15.0 0.0 0.0 xyz
      dof rx ry rz
   end
   begin
      id 7
      name RightToeBase
      direction 0.000000 0.000000 1.000000
      length 2.952750
      axis 0.0 0.0 0.0 xyz
      dof rx ry rz
   end
   begin
      id 8
      name LeftUpLeg
      direction 0.000000 -1.000000 0.000000
      length 16.405774
      axis 0.0 0.0 0.0 xyz
      dof rx ry rz
   end
   begin
      id 9
      name LeftLeg
      direction 0.000000 -1.000000 0.000000
      length 14.644143
      axis 0.0 0.0 0.0 xyz
      dof rx ry rz
   end
   begin
      id 10
      name LeftFoot
      direction 0.000000 -0.258819 0.965926
      length 5.806150
      axis 15.0 0.0 0.0 xyz
      dof rx ry rz
   end
   begin
      id 11
      name LeftToeBase
      direction 0.000000 0.000000 1.000000
      length 2.952750
      axis 0.0 0.0 0.0 xyz
      dof rx ry rz
   end
   begin
      id 12
      name Spine
      direction 0.000000 1.000000 0.000000
      length 0.000000
      axis 0.0 0.0 0.0 xyz
      dof rx ry rz
   end
   begin
      id 13
      name Spine_dum1
      direction 0.000000 1.000000 0.000000
      length 10.013923
      axis 0.0 0.0 0.0 xyz
   end
   begin
      id 14
      name Spine_dum2
      direction 0.000000 1.000000 0.000000
      length 10.013923
      axis 0.0 0.0 0.0 xyz
   end
   begin
      id 15
      name Spine_dum3
      direction 0.000000 1.000000 0.000000
      length 15.777476
      axis 0.0 0.0 0.0 xyz
   end
   begin
      id 16
      name RightShoulder
      direction -1.000000 0.000000 0.000000
      length 7.190220
      axis 0.0 0.0 90.0 xyz
      dof rx ry rz
   end
   begin
      id 17
      name RightArm
      direction -1.000000 0.000000 0.000000
      length 10.177469
      axis 0.0 0.0 90.0 xyz
      dof rx ry rz
   end
   begin
      id 18
      name RightForeArm
      direction -1.000000 0.000000 0.000000
      length 8.392114
      axis 0.0 0.0 90.0 xyz
      dof ry rz rx
   end
   begin
      id 19
      name RightHand
      direction -1.000000 0.000000 0.000000
      length 0.000000
      axis 0.0 0.0 90.0 xyz
      dof rx ry rz
   end
   begin
      id 20
      name RightHand_dum1
      direction -1.000000 0.000000 0.000000
      length 3.937000
      axis 0.0 0.0 90.0 xyz
   end
   begin
      id 21
      name RightHand_dum2
      direction 0.000000 0.000000 0.000000
      length 0.000000
      axis 0.0 0.0 90.0 xyz
   end
   begin
      id 22
      name RightHandThumb1
      direction 0.000000 0.000000 1.000000
      length 3.937000
      axis 0.0 0.0 90.0 xyz
      dof rx rz ry
   end
   begin
      id 23
      name LeftShoulder
      direction 1.000000 0.000000 0.000000
      length 7.190220
      axis 0.0 0.0 -90.0 xyz
      dof rx ry rz
   end
   begin
      id 24
      name LeftArm
      direction 1.000000 0.000000 0.000000
      length 10.177469
      axis 0.0 0.0 -90.0 xyz
      dof rx ry rz
   end
   begin
      id 25
      name LeftForeArm
      direction 1.000000 0.000000 0.000000
      length 8.392114
      axis 0.0 0.0 -90.0 xyz
      dof ry rz rx
   end
   begin
      id 26
      name LeftHand
      direction 1.000000 0.000000 0.000000
      length 0.000000
      axis 0.0 0.0 -90.0 xyz
      dof rx ry rz
   end
   begin
      id 27
      name LeftHand_dum1
      direction 1.000000 0.000000 0.000000
      length 3.937000
      axis 0.0 0.0 -90.0 xyz
   end
   begin
      id 28
      name LeftHand_dum2
      direction 0.000000 0.000000 0.000000
      length 0.000000
      axis 0.0 0.0 -90.0 xyz
   end
   begin
      id 29
      name LeftHandThumb1
      direction 0.000000 0.000000 1.000000
      length 3.937000
      axis 0.0 0.0 -90.0 xyz
      dof rx rz ry
   end
   begin
      id 30
      name Head
      direction 0.000000 1.000000 0.000000
      length 4.527550
      axis 0.0 0.0 0.0 xyz
      dof rx ry rz
   end
:hierarchy
   begin
      root RightUpLeg_dum LeftUpLeg_dum Spine_dum
      RightUpLeg_dum RightUpLeg
      LeftUpLeg_dum LeftUpLeg
      Spine_dum Spine
      RightUpLeg RightLeg
      RightLeg RightFoot
      RightFoot RightToeBase
      LeftUpLeg LeftLeg
      LeftLeg LeftFoot
      LeftFoot LeftToeBase
      Spine Spine_dum1 Spine_dum2 Spine_dum3
      Spine_dum1 RightShoulder
      Spine_dum2 LeftShoulder
      Spine_dum3 Head
      RightShoulder RightArm
      RightArm RightForeArm
      RightForeArm RightHand
      RightHand RightHand_dum1 RightHand_dum2
      RightHand_dum2 RightHandThumb1
      LeftShoulder LeftArm
      LeftArm LeftForeArm
      LeftForeArm LeftHand
      LeftHand LeftHand_dum1 LeftHand_dum2
      LeftHand_dum2 LeftHandThumb1
   end

# File created by Blade
# Date/Time:  Thu Jan 22 19:08:58 2015
# Frame Rate: 120.000 fps
#------------------------------------------------------
:FULLY-SPECIFIED
:DEGREES
1259
root -3.374866 32.963357 0.377013 8.426932 3.128788 2.738154
RightUpLeg -0.266883 -8.286981 -1.076767
RightLeg 0.488910 -0.000000 -0.000000
RightFoot -14.053488 -11.246392 3.696257
RightToeBase 5.531418 -0.000000 -0.000000
LeftUpLeg -3.682874 2.311551 4.862600
LeftLeg 4.980796 -0.000000 -0.000000
LeftFoot -11.786878 -0.145662 -13.208077
LeftToeBase 6.433284 -0.000000 -0.000000
Spine -10.324439 -2.046152 -1.586685
RightShoulder -16.309094 -14.608444 -27.633481
RightArm 23.676968 24.112392 40.246892
RightForeArm -8.725513 -0.000000 10.741263
RightHand 10.851070 -0.000000 5.587849
RightHandThumb1 -24.326973 -0.000000 -32.862282
LeftShoulder -24.284683 8.685406 26.867866
LeftArm 13.968791 -29.424671 -40.223288
LeftForeArm 18.402938 -0.000000 -0.016015
LeftHand -1.729224 -0.000000 -7.865271
LeftHandThumb1 -26.253704 0.000000 33.147579
Head -1.381480 1.578688 -6.060844
1260
root -3.424085 32.968966 0.353686 8.430355 3.023343 2.744260
RightUpLeg -0.312270 -8.351334 -1.001887
RightLeg 0.450305 -0.000000 -0.000000
RightFoot -13.953454 -11.180098 3.542931
RightToeBase 5.335844 -0.000000 -0.000000
LeftUpLeg -4.121216 2.513807 4.902588
LeftLeg 5.806270 -0.000000 -0.000000
LeftFoot -11.945215 -0.189316 -13.290415
LeftToeBase 6.337902 -0.000000 -0.000000
Spine -10.089475 -2.083869 -1.670993
RightShoulder -16.324131 -14.525508 -27.634901
RightArm 23.481056 24.078445 40.054849
RightForeArm -8.229907 0.000000 10.781403
RightHand 10.807216 -0.000000 5.487003
RightHandThumb1 -24.326973 -0.000000 -32.862282
LeftShoulder -24.226398 8.534008 27.003660
LeftArm 13.799545 -29.257160 -39.995372
LeftForeArm 18.342647 -0.000000 0.015710
LeftHand -1.736105 0.000000 -7.804113
LeftHandThumb1 -26.253704 0.000000 33.147579
Head -1.942825 1.576541 -5.919527
1261
root -3.464853 32.976842 0.333936 8.408654 2.948742 2.781609
RightUpLeg -0.310028 -8.496700 -0.980259
RightLeg 0.392375 -0.000000 -0.000000
RightFoot -13.874852 -10.971644 3.464959
RightToeBase 5.370469 -0.000000 -0.000000
LeftUpLeg -4.574470 2.784008 4.898848
LeftLeg 6.705600 -0.000000 -0.000000
LeftFoot -12.056008 -0.303953 -13.204762
LeftToeBase 6.048886 -0.000000 -0.000000
Spine -9.830672 -2.160818 -1.765365
RightShoulder -16.362685 -14.479161 -27.629152
RightArm 23.349306 24.226941 39.950389
RightForeArm -7.963099 -0.000000 10.842621
RightHand 10.963570 -0.000000 5.517474
RightHandThumb1 -24.326973 -0.000000 -32.862282
LeftShoulder -24.247578 8.551878 27.054757
LeftArm 13.854990 -29.243670 -39.861061
LeftForeArm 18.440788 0.000000 0.021763
LeftHand -1.730042 -0.000000 -7.774364
LeftHandThumb1 -26.253704 0.000000 33.147579
Head -2.479161 1.610718 -5.765169
1262
root -3.508841 32.984690 0.307308 8.421862 2.899634 2.831074
RightUpLeg -0.369233 -8.625854 -0.951955
RightLeg 0.370830 -0.000000 -0.000000
RightFoot -13.833718 -10.778367 3.474282
RightToeBase 5.424020 -0.000000 -0.000000
LeftUpLeg -5.087810 2.922697 4.889837
LeftLeg 7.621204 -0.000000 -0.000000
LeftFoot -12.151124 -0.312998 -13.267531
LeftToeBase 5.763908 -0.000000 -0.000000
Spine -9.608895 -2.260174 -1.895540
RightShoulder -16.388277 -14.468871 -27.630288
RightArm 23.231677 24.347229 39.853274
RightForeArm -7.627170 -0.000000 10.850706
RightHand 11.129413 -0.000000 5.360462
RightHandThumb1 -24.326973 -0.000000 -32.862282
LeftShoulder -24.190467 8.501494 27.190406
LeftArm 13.729101 -29.151614 -39.637541
LeftForeArm 18.363566 -0.000000 0.128484
LeftHand -1.902370 0.000000 -7.752620
LeftHandThumb1 -26.253704 0.000000 33.147579
Head -2.969361 1.654064 -5.559974
1263
root -3.545959 32.992708 0.286122 8.398542 2.863300 2.887404
RightUpLeg -0.372091 -8.746020 -0.956126
RightLeg 0.344117 -0.000000 -0.000000
RightFoot -13.780401 -10.617915 3.435133
RightToeBase 5.387234 -0.000000 -0.000000
LeftUpLeg -5.588866 3.115235 4.861435
LeftLeg 8.595894 -0.000000 -0.000000
LeftFoot -12.247012 -0.373131 -13.252532
LeftToeBase 5.542942 -0.000000 -0.000000
Spine -9.354685 -2.377602 -1.998402
RightShoulder -16.433863 -14.549291 -27.649869
RightArm 23.200021 24.566303 39.832040
RightForeArm -7.452391 0.000000 10.920472
RightHand 11.204513 -0.000000 5.198978
RightHandThumb1 -24.326973 -0.000000 -32.862282
LeftShoulder -24.170048 8.468427 27.269102
LeftArm 13.700471 -29.279817 -39.432956
LeftForeArm 18.544044 -0.000000 0.121571
LeftHand -1.847014 0.000000 -7.579919
LeftHandThumb1 -26.253704 0.000000 33.147579
Head -3.447980 1.625945 -5.438175
1264
root -3.585644 33.002185 0.265430 8.386199 2.799586 2.956110
RightUpLeg -0.407960 -8.782568 -0.965743
RightLeg 0.349561 -0.000000 -0.000000
RightFoot -13.756542 -10.540852 3.343779
RightToeBase 5.088381 -0.000000 -0.000000
LeftUpLeg -6.082573 3.290219 4.829090
LeftLeg 9.546395 -0.000000 -0.000000
LeftFoot -12.295289 -0.426187 -13.295970
LeftToeBase 5.313636 -0.000000 -0.000000
Spine -9.119448 -2.444088 -2.171928
RightShoulder -16.514353 -14.567898 -27.599201
RightArm 23.124669 24.696848 39.716354
RightForeArm -7.166013 -0.000000 10.952548
RightHand 11.248424 -0.000000 5.086111
RightHandThumb1 -24.326973 -0.000000 -32.862282
LeftShoulder -24.146293 8.442285 27.391846
LeftArm 13.682741 -29.245840 -39.193368
LeftForeArm 18.420144 -0.000000 0.162256
LeftHand -1.941979 -0.000000 -7.364328
LeftHandThumb1 -26.253704 0.000000 33.147579
Head -3.897851 1.590818 -5.158987
1265
root -3.621315 33.011682 0.240250 8.417788 2.787845 3.042052
RightUpLeg -0.497303 -8.838799 -0.989455
RightLeg 0.384171 -0.000000 -0.000000
RightFoot -13.747062 -10.446198 3.339529
RightToeBase 5.059006 -0.000000 -0.000000
LeftUpLeg -6.640737 3.302419 4.774129
LeftLeg 10.493938 -0.000000 -0.000000
LeftFoot -12.356689 -0.326386 -13.362227
LeftToeBase 5.205032 -0.000000 -0.000000
Spine -8.937622 -2.584148 -2.318578
RightShoulder -16.526666 -14.499009 -27.654765
RightArm 22.909542 24.901365 39.680548
RightForeArm -6.997148 -0.000000 11.134658
RightHand 11.273179 -0.000000 5.076291
RightHandThumb1 -24.326973 -0.000000 -32.862282
LeftShoulder -24.120444 8.415389 27.465948
LeftArm 13.613827 -29.278482 -38.905286
LeftForeArm 18.311005 -0.000000 0.284770
LeftHand -2.105219 -0.000000 -7.164112
LeftHandThumb1 -26.253704 0.000000 33.147579
Head -4.312462 1.671689 -4.954674
1266
root -3.656477 33.022078 0.218718 8.423512 2.785471 3.126191
RightUpLeg -0.551586 -8.966483 -1.013014
RightLeg 0.417955 -0.000000 -0.000000
RightFoot -13.730735 -10.292395 3.318020
RightToeBase 5.498538 -0.000000 -0.000000
LeftUpLeg -7.186598 3.278502 4.729028
LeftLeg 11.484558 -0.000000 -0.000000
LeftFoot -12.395103 -0.254368 -13.422009
LeftToeBase 4.950370 -0.000000 -0.000000
Spine -8.743956 -2.702101 -2.492188
RightShoulder -16.615376 -14.452512 -27.622770
RightArm 22.835217 25.108451 39.610145
RightForeArm -6.797260 -0.000000 11.178106
RightHand 11.277542 0.000000 5.021524
RightHandThumb1 -24.326973 -0.000000 -32.862282
LeftShoulder -24.086350 8.412494 27.585409
LeftArm 13.592085 -29.259377 -38.650013
LeftForeArm 18.239915 -0.000000 0.351982
LeftHand -2.172792 -0.000000 -6.821961
LeftHandThumb1 -26.253704 0.000000 33.147579
Head -4.651946 1.626696 -4.656446
1267
root -3.689547 33.033533 0.196587 8.459145 2.780025 3.219953
RightUpLeg -0.643287 -9.131721 -1.046292
RightLeg 0.462059 -0.000000 -0.000000
RightFoot -13.718821 -10.109522 3.324460
RightToeBase 5.459844 -0.000000 -0.000000
LeftUpLeg -7.775158 3.321037 4.668453
LeftLeg 12.513041 -0.000000 -0.000000
LeftFoot -12.388634 -0.248301 -13.462067
LeftToeBase 4.669154 -0.000000 -0.000000
Spine -8.604715 -2.784613 -2.682635
RightShoulder -16.668097 -14.477877 -27.602917
RightArm 22.704899 25.382154 39.604515
RightForeArm -6.673668 -0.000000 11.280603
RightHand 11.169057 -0.000000 4.775852
RightHandThumb1 -24.326973 -0.000000 -32.862282
LeftShoulder -24.010339 8.324456 27.764921
LeftArm 13.491278 -29.141295 -38.365779
LeftForeArm 18.050819 -0.000000 0.474610
LeftHand -2.331600 0.000000 -6.625197
LeftHandThumb1 -26.253704 0.000000 33.147579
Head -4.932391 1.566001 -4.370355
1268
root -3.722547 33.044875 0.175050 8.494761 2.767054 3.303900
RightUpLeg -0.732360 -9.222123 -1.067251
RightLeg 0.489553 -0.000000 -0.000000
RightFoot -13.693287 -10.008299 3.284204
RightToeBase 5.052470 -0.000000 -0.000000
LeftUpLeg -8.359431 3.270994 4.624106
LeftLeg 13.527619 -0.000000 -0.000000
LeftFoot -12.375464 -0.175284 -13.531669
LeftToeBase 4.400959 -0.000000 -0.000000
Spine -8.476941 -2.915539 -2.856729
RightShoulder -16.692297 -14.412166 -27.571152
RightArm 22.564819 25.594943 39.539595
RightForeArm -6.406529 -0.000000 11.354442
RightHand 11.217494 -0.000000 4.652703
RightHandThumb1 -24.326973 -0.000000 -32.862282
LeftShoulder -24.004128 8.297955 27.890693
LeftArm 13.449334 -29.055736 -38.068603
LeftForeArm 17.846667 -0.000000 0.589535
LeftHand -2.554063 0.000000 -6.341016
LeftHandThumb1 -26.253704 0.000000 33.147579
Head -5.182494 1.571832 -4.090906
